<?xml version="1.0" standalone="no"?>
<!DOCTYPE svg PUBLIC "-//W3C//DTD SVG 20010904//EN"
 "http://www.w3.org/TR/2001/REC-SVG-20010904/DTD/svg10.dtd">
<svg version="1.0" xmlns="http://www.w3.org/2000/svg"
 width="512.000000pt" height="512.000000pt" viewBox="0 0 512.000000 512.000000"
 preserveAspectRatio="xMidYMid meet">
<metadata>
Created by potrace 1.11, written by Peter Selinger 2001-2013
</metadata>
<g transform="translate(0.000000,512.000000) scale(0.100000,-0.100000)"
fill="#000000" stroke="none">
<path d="M1990 5091 c-170 -31 -288 -115 -356 -257 l-35 -74 -27 14 c-33 17
-84 14 -117 -8 -66 -43 -104 -198 -83 -335 18 -116 87 -193 174 -196 49 -1 57
-6 61 -38 24 -172 90 -274 202 -312 28 -9 51 -22 52 -28 8 -84 -5 -148 -71
-352 -33 -99 -66 -216 -75 -260 -15 -73 -53 -211 -92 -325 -8 -25 -16 -53 -18
-62 -2 -10 -20 -68 -39 -130 -79 -255 -238 -824 -261 -933 -30 -146 -27 -196
17 -285 44 -91 175 -217 370 -358 86 -62 174 -128 195 -147 21 -19 41 -35 46
-35 26 -1 -28 -123 -138 -310 -31 -52 -63 -120 -71 -150 -9 -30 -18 -62 -20
-72 -4 -12 25 -32 115 -82 371 -206 729 -341 929 -350 78 -4 175 13 336 59 91
26 248 94 259 112 4 6 -45 62 -108 125 l-114 115 60 17 c173 48 353 182 466
346 59 88 119 223 140 320 13 58 16 87 18 177 10 366 -217 733 -611 987 l-61
40 18 30 c9 17 24 54 32 81 15 55 22 194 10 211 -5 5 -46 39 -93 74 -572 431
-797 778 -664 1029 47 90 42 88 141 67 98 -20 173 -22 214 -6 40 17 49 53 31
124 -13 55 -13 60 3 72 10 7 23 15 29 17 7 3 3 15 -10 33 l-21 29 20 16 21 16
-22 30 c-23 32 -29 63 -13 63 16 0 71 58 71 75 0 9 -28 44 -61 78 -73 73 -89
106 -87 178 2 94 -79 263 -174 364 -27 28 -38 49 -38 71 0 55 -53 84 -215 119
-83 18 -272 27 -335 16z m-22 -3051 c27 -73 53 -168 77 -285 12 -54 12 -369 1
-439 l-11 -70 -50 59 c-170 199 -240 280 -281 319 -12 12 -26 30 -31 41 -25
47 5 177 92 400 26 66 57 144 68 174 l21 53 41 -83 c23 -46 56 -122 73 -169z
m1247 -195 c211 -54 380 -240 401 -442 4 -32 8 -64 9 -71 1 -14 -10 -100 -18
-137 -11 -44 -49 -129 -76 -169 -99 -143 -250 -226 -422 -232 -229 -8 -427
119 -517 333 -29 69 -36 112 -35 213 2 232 160 436 388 501 76 22 193 24 270
4z"/>
<path d="M3196 1658 c-25 -7 -59 -30 -92 -62 l-53 -51 -27 22 c-58 46 -164 53
-239 16 -103 -52 -139 -173 -85 -288 24 -52 37 -65 143 -154 114 -94 142 -135
134 -196 -4 -25 -4 -45 -2 -45 3 0 35 13 70 29 177 81 369 244 425 362 36 76
40 152 11 214 -26 57 -104 131 -159 149 -51 18 -70 18 -126 4z"/>
<path d="M3284 3494 c-201 -43 -351 -133 -466 -278 l-40 -50 22 -18 c29 -24
31 -23 59 17 60 89 186 187 288 225 71 26 94 31 192 37 271 17 587 -128 842
-386 236 -239 361 -551 363 -901 0 -91 -11 -247 -19 -259 -2 -4 -6 -26 -10
-49 -3 -24 -19 -87 -35 -141 -107 -361 -327 -714 -644 -1034 -143 -145 -205
-201 -308 -280 -38 -29 -68 -56 -68 -62 1 -22 29 -48 42 -38 169 129 462 402
589 548 403 465 645 932 697 1345 8 70 8 258 -1 330 -17 141 -87 334 -159 438
-72 103 -201 221 -352 321 -59 39 -287 151 -307 151 -8 0 -19 4 -25 9 -12 11
-160 54 -231 67 -13 2 -35 7 -50 10 -57 13 -318 11 -379 -2z"/>
<path d="M1135 3179 c-22 -4 -55 -10 -72 -13 -109 -20 -288 -109 -394 -196
-255 -211 -395 -514 -382 -834 12 -325 161 -626 460 -931 155 -159 252 -242
625 -538 162 -128 199 -153 208 -142 17 21 13 26 -70 95 -41 34 -86 72 -100
83 -14 12 -54 47 -90 77 -81 69 -181 162 -277 260 -264 267 -426 551 -490 860
-27 131 -25 387 5 504 54 216 178 404 355 540 73 56 218 130 272 140 17 3 44
10 60 14 43 13 194 14 235 2 37 -11 46 -6 52 24 3 20 -11 27 -107 47 -63 13
-237 18 -290 8z"/>
</g>
</svg>
